<?xml version="1.0" encoding="UTF-8"?>
<svg enable-background="new 0 0 20.8 21" version="1.1" viewBox="0 0 20.8 21" xml:space="preserve" xmlns="http://www.w3.org/2000/svg">
<style type="text/css">
	.st0{fill:none;stroke:#FFFFFF;stroke-width:2;stroke-miterlimit:10;}
	.st1{fill:none;stroke:#000000;stroke-miterlimit:10;}
</style>
	<g transform="translate(0 511) scale(.1 -.1)">
		<path d="m87.5 5108.8c-138.1-24.7-102.6-230.1 35.6-207.5 133.6 27 99.7 226.2-35.6 207.5zm19-6.4c12.5-9.9 15.7-24.7 20.5-46.2-6.8 0.3-44.1-0.5-46.2 0.8 4.2 15.9 9.3 47.1 25.7 45.4zm-21.5-8.5c-5.6-10.7-8.7-24.5-11.7-36.9-2.9-0.1-27.9-0.6-27.3-0.5 7.8 18.7 24.1 37.4 41.4 43.5 0.3 0-0.8-2.8-2.4-6.1zm41.6 3.1c14.8-6.9 27.2-22.8 35.6-40.7h-27.8c-2.5 13.8-7.6 31.5-14.2 43.4-0.2 0.4 2.2-0.7 6.4-2.7zm-66.7-6.6c-9.2-8.9-16-21.7-21.9-33.4 0.1-1.4-13.8-0.5-17.4-0.8 8.8 14.9 26.1 30.2 42 37.3 0.1 0-1.1-1.4-2.7-3.1zm92.4-0.6c14.4-8.1 25.7-19.1 35.2-33.6-4.3 0-13.1 0.1-17.4 0.2-7 14.5-12.8 24.2-21.7 33.4-3.8 4.1-3.3 4.1 3.9 0zm-117.3-41.6c-3.1-9-6.9-30.8-6.6-40.4h-22.8c1.5 15.3 3.6 25.4 8.2 35.7 2.5 5.9 1.6 5.4 12.3 5.4 8.6 0.1 9.2 0 8.9-0.7zm36.6-1c-0.1-3.1-2.2-31.2-2.7-39.1-8.3-0.1-25-0.2-33.3-0.2 0.3 10.9 3.4 32.7 7.5 40.4 0.7 0.7 1.8 0.8 14.7 0.8h13.9l-0.1-1.9zm57-1.5c1.4-10.6 2.8-28.2 2.6-37.8h-21.9l2.6-7.4h-10.8l2 7.4h-18.7l-2.6-5.5-2.6 5.6s-2.6 0.1-2.9 0.2c0.2 12 2.7 37.4 3.2 40.3 4 0.2 40.9 0.4 48.6 0.5l0.5-3.3zm10.4-37.9c-0.7 6.1-2.5 35.1-3.2 41.1 4.6-0.1 30.8 0.4 29-0.7 4-8.3 7.3-29.2 7.3-40.4m19.2 40.4c5.6-7.9 10.4-28.5 10.7-40.4h-22.6c-0.3 13.7-2.7 28-6.9 41.1 3.2 0 19.7 0.5 18.8-0.7zm-162.7-51.4c0.9-13.4 3.4-26.1 6.9-36.7 2.5-1.4-15.9-0.3-18.4-0.5-6 9.7-10.7 30.1-11.1 40.6 1 0.4 18.2 0.3 22.3 0.3l0.3-3.7zm41.6-14.3c1-12.6 1.4-18 1.8-23.1-4.7 0.1-29.7-0.3-28.6 0.6-2.9 3.3-8.6 34.5-7.6 39.9-2.3 1.1 28 0.3 33 0.4l1.4-17.8zm61.1 15.2c-0.1-9.2-1.6-27.7-3.2-38.1-11.9-0.1-35.9-0.2-47.8-0.2-1.5 2.7-3.8 38.8-4.4 41.1h24 7.1 24.3v-2.8zm40.8 2.8-0.3-4.9c-0.2-9-4.1-29.2-7.4-35.4-0.6-0.7-1.8-0.8-14.6-0.8h-13.8c0 4 2.5 35.7 3 41.1m63-1c-0.3-9.2-6.1-33.4-11-39.3 1-1-15.7-0.7-18.9-0.8 4.2 12.8 6.8 27.7 7.3 41.1h22.6v-1zm-163.7-48.1c5.4-11.4 15.3-26 23.5-34.8-13 4.7-34.1 23.6-40.3 35.2-0.3 0.4 18.5 0.6 16.8-0.4zm148 0.2c-8.7-13.3-23-26.8-37.6-34-4.5-2.4-4.6-2.6 1.9 4.7 8.1 8.3 13.8 19.4 18.7 29.1 0.6 0.6 1.6 0.7 9 0.7 6.5 0 8.2-0.1 8-0.5zm-111.9-3.4c-0.5-10.8 18.5-44.1 9.1-36.8-15 6.5-28.5 21.7-37.1 40.3h27.3l0.7-3.5zm52.1 3c-10.2-57.7-35.3-57.3-45.4 0.5 7-0.1 47.6 0.3 45.4-0.5zm34.4-0.5c-5.9-13.2-17.9-29.3-31.3-36.7-7.5-3.3-13.2-9.1-6.8 1.8 4.1 6.5 9.1 26 11.2 35.4-1.1 0.7 22.9 0.5 27.2 0.5l-0.3-1z"/>
		</g>
	<polyline class="st0" points="0.6 10.6 3.3 10.6 5.9 4.4 8 15.1 10.4 6.1 12.7 12.2 13.9 10.6 20.8 10.6"/>
	<polyline class="st1" points="0.6 10.6 3.3 10.6 5.9 4.4 8.1 15.2 10.4 6.1 12.7 12.2 13.9 10.6 20.8 10.6"/>
</svg>